<svg width="46" height="89" viewBox="0 0 46 89" fill="none" xmlns="http://www.w3.org/2000/svg">
<path fill-rule="evenodd" clip-rule="evenodd" d="M0 0L8.0909 0C11.4864 0 14.3934 2.09167 15.5937 5.05681H15.1704V9.07697C15.1704 9.63553 15.6232 10.0883 16.1817 10.0883C16.7403 10.0883 17.1931 9.63553 17.1931 9.07697V5.05681H16.7699C17.9701 2.09167 20.8771 0 24.2726 0H37.4203C41.8888 0 45.5112 3.62242 45.5112 8.09089V80.9089C45.5112 85.3774 41.8888 88.9998 37.4203 88.9998H24.2726C21.2264 88.9998 18.5733 87.3163 17.1931 84.829V81.4399C17.1931 80.8813 16.7403 80.4285 16.1817 80.4285C15.6232 80.4285 15.1704 80.8813 15.1704 81.4399V84.829C13.7901 87.3163 11.1371 88.9998 8.09089 88.9998H0V0ZM17.1931 17.1173C17.1931 16.5587 16.7403 16.1059 16.1817 16.1059C15.6232 16.1059 15.1704 16.5587 15.1704 17.1173V25.1576C15.1704 25.7162 15.6232 26.169 16.1817 26.169C16.7403 26.169 17.1931 25.7162 17.1931 25.1576V17.1173ZM17.1931 33.1979C17.1931 32.6394 16.7403 32.1866 16.1817 32.1866C15.6232 32.1866 15.1704 32.6394 15.1704 33.1979V41.2383C15.1704 41.7968 15.6232 42.2496 16.1817 42.2496C16.7403 42.2496 17.1931 41.7968 17.1931 41.2383V33.1979ZM17.1931 49.2786C17.1931 48.72 16.7403 48.2672 16.1817 48.2672C15.6232 48.2672 15.1704 48.72 15.1704 49.2786V57.3189C15.1704 57.8775 15.6232 58.3303 16.1817 58.3303C16.7403 58.3303 17.1931 57.8775 17.1931 57.3189V49.2786ZM17.1931 65.3592C17.1931 64.8007 16.7403 64.3479 16.1817 64.3479C15.6232 64.3479 15.1704 64.8007 15.1704 65.3592V73.3996C15.1704 73.9581 15.6232 74.4109 16.1817 74.4109C16.7403 74.4109 17.1931 73.9581 17.1931 73.3996V65.3592Z" fill="white"/>
</svg>
